<mxfile host="app.diagrams.net" modified="2023-06-16T09:05:57.607Z" agent="Mozilla/5.0 (Windows NT 10.0; Win64; x64) AppleWebKit/537.36 (KHTML, like Gecko) Chrome/114.0.0.0 Safari/537.36" etag="2EIGGv8KX104OK5gT9Hf" version="21.3.8" type="github">
  <diagram name="Pagina-1" id="IbP6fJ6-1QX7e-Cu3DAG">
    <mxGraphModel dx="1841" dy="2197" grid="1" gridSize="10" guides="1" tooltips="1" connect="1" arrows="1" fold="1" page="1" pageScale="1" pageWidth="827" pageHeight="1169" math="0" shadow="0">
      <root>
        <mxCell id="0" />
        <mxCell id="1" parent="0" />
        <mxCell id="WLyPiBCKoL955C66Sqb2-3" value="&lt;h2&gt;&lt;font color=&quot;#3333ff&quot;&gt;&lt;b&gt;Schema: THT&lt;/b&gt;&lt;/font&gt;&lt;/h2&gt;" style="rounded=1;whiteSpace=wrap;html=1;strokeWidth=2;fillWeight=4;hachureGap=8;hachureAngle=45;sketch=1;fillColor=#e1d5e7;strokeColor=#9673a6;align=left;" parent="1" vertex="1">
          <mxGeometry x="40" y="520" width="760" height="510" as="geometry" />
        </mxCell>
        <mxCell id="WLyPiBCKoL955C66Sqb2-20" value="&lt;h3&gt;&lt;font color=&quot;#ff8000&quot;&gt;Schema: API_GTBV&lt;/font&gt;&lt;/h3&gt;" style="rounded=1;whiteSpace=wrap;html=1;strokeWidth=2;fillWeight=4;hachureGap=8;hachureAngle=45;fillColor=#dae8fc;sketch=1;strokeColor=#6c8ebf;align=left;" parent="1" vertex="1">
          <mxGeometry x="40" y="-130" width="760" height="630" as="geometry" />
        </mxCell>
        <mxCell id="WLyPiBCKoL955C66Sqb2-21" value="View: &lt;br&gt;_RPUN_TBV_GTBV" style="whiteSpace=wrap;html=1;align=center;" parent="1" vertex="1">
          <mxGeometry x="334.99" y="430" width="160" height="50" as="geometry" />
        </mxCell>
        <mxCell id="WLyPiBCKoL955C66Sqb2-22" value="Table:&lt;br&gt;RPUN_TBV_GTBV" style="whiteSpace=wrap;html=1;align=center;" parent="1" vertex="1">
          <mxGeometry x="334" y="130" width="160" height="50" as="geometry" />
        </mxCell>
        <mxCell id="WLyPiBCKoL955C66Sqb2-23" value="" style="endArrow=classic;html=1;rounded=0;" parent="1" source="WLyPiBCKoL955C66Sqb2-47" target="WLyPiBCKoL955C66Sqb2-21" edge="1">
          <mxGeometry width="50" height="50" relative="1" as="geometry">
            <mxPoint x="435" y="560" as="sourcePoint" />
            <mxPoint x="250" y="670" as="targetPoint" />
          </mxGeometry>
        </mxCell>
        <mxCell id="WLyPiBCKoL955C66Sqb2-24" value="View met filtering" style="edgeLabel;html=1;align=center;verticalAlign=middle;resizable=0;points=[];" parent="WLyPiBCKoL955C66Sqb2-23" vertex="1" connectable="0">
          <mxGeometry x="-0.2533" y="2" relative="1" as="geometry">
            <mxPoint as="offset" />
          </mxGeometry>
        </mxCell>
        <mxCell id="WLyPiBCKoL955C66Sqb2-27" value="API&amp;nbsp;" style="strokeWidth=2;html=1;shape=mxgraph.flowchart.document2;whiteSpace=wrap;size=0.25;" parent="1" vertex="1">
          <mxGeometry x="365.01" y="-110" width="100" height="60" as="geometry" />
        </mxCell>
        <mxCell id="WLyPiBCKoL955C66Sqb2-29" value="Stored Procedure&lt;br&gt;GET_PUNCTUALITEIT_INFORMATIE" style="html=1;dashed=0;whiteSpace=wrap;" parent="1" vertex="1">
          <mxGeometry x="287.51" width="255.01" height="80" as="geometry" />
        </mxCell>
        <mxCell id="WLyPiBCKoL955C66Sqb2-30" value="" style="endArrow=classic;html=1;rounded=0;" parent="1" source="WLyPiBCKoL955C66Sqb2-22" target="WLyPiBCKoL955C66Sqb2-29" edge="1">
          <mxGeometry width="50" height="50" relative="1" as="geometry">
            <mxPoint x="415.01385964912265" y="400" as="sourcePoint" />
            <mxPoint x="660.01" y="230" as="targetPoint" />
          </mxGeometry>
        </mxCell>
        <mxCell id="WLyPiBCKoL955C66Sqb2-33" value="" style="rounded=1;whiteSpace=wrap;html=1;strokeWidth=2;fillWeight=4;hachureGap=8;hachureAngle=45;sketch=1;fillColor=#fff2cc;strokeColor=#d6b656;" parent="1" vertex="1">
          <mxGeometry x="40" y="1040" width="760" height="160" as="geometry" />
        </mxCell>
        <mxCell id="WLyPiBCKoL955C66Sqb2-31" value="" style="endArrow=classic;html=1;rounded=0;" parent="1" source="WLyPiBCKoL955C66Sqb2-29" target="WLyPiBCKoL955C66Sqb2-27" edge="1">
          <mxGeometry width="50" height="50" relative="1" as="geometry">
            <mxPoint x="610.01" y="280" as="sourcePoint" />
            <mxPoint x="660.01" y="230" as="targetPoint" />
          </mxGeometry>
        </mxCell>
        <mxCell id="WLyPiBCKoL955C66Sqb2-34" value="BDV RPUN DATA" style="shape=datastore;whiteSpace=wrap;html=1;" parent="1" vertex="1">
          <mxGeometry x="320" y="1080" width="230" height="80" as="geometry" />
        </mxCell>
        <mxCell id="WLyPiBCKoL955C66Sqb2-16" value="" style="endArrow=classic;html=1;rounded=0;" parent="1" source="WLyPiBCKoL955C66Sqb2-34" target="WLyPiBCKoL955C66Sqb2-42" edge="1">
          <mxGeometry width="50" height="50" relative="1" as="geometry">
            <mxPoint x="435" y="1070" as="sourcePoint" />
            <mxPoint x="250" y="1000" as="targetPoint" />
          </mxGeometry>
        </mxCell>
        <mxCell id="WLyPiBCKoL955C66Sqb2-41" value="Reisadvies GTBV" style="whiteSpace=wrap;html=1;align=center;" parent="1" vertex="1">
          <mxGeometry x="485" y="875" width="145" height="70" as="geometry" />
        </mxCell>
        <mxCell id="WLyPiBCKoL955C66Sqb2-42" value="_Reisadvies_GBTV" style="shape=folder;tabWidth=80;tabHeight=20;tabPosition=left;html=1;whiteSpace=wrap;align=center;" parent="1" vertex="1">
          <mxGeometry x="170" y="870" width="160" height="80" as="geometry" />
        </mxCell>
        <mxCell id="WLyPiBCKoL955C66Sqb2-45" value="_BepaalVertraging&lt;br style=&quot;border-color: var(--border-color);&quot;&gt;GTBV" style="shape=folder;tabWidth=80;tabHeight=20;tabPosition=left;html=1;whiteSpace=wrap;align=center;" parent="1" vertex="1">
          <mxGeometry x="170" y="640" width="160" height="80" as="geometry" />
        </mxCell>
        <mxCell id="WLyPiBCKoL955C66Sqb2-46" value="_BepaalHerplanning&lt;br style=&quot;border-color: var(--border-color);&quot;&gt;GTBV" style="shape=folder;tabWidth=80;tabHeight=20;tabPosition=left;html=1;whiteSpace=wrap;align=center;" parent="1" vertex="1">
          <mxGeometry x="170" y="760" width="160" height="80" as="geometry" />
        </mxCell>
        <mxCell id="WLyPiBCKoL955C66Sqb2-47" value="BepaalVertraging&lt;br style=&quot;border-color: var(--border-color);&quot;&gt;GTBV" style="whiteSpace=wrap;html=1;align=center;" parent="1" vertex="1">
          <mxGeometry x="480" y="640" width="150" height="80" as="geometry" />
        </mxCell>
        <mxCell id="WLyPiBCKoL955C66Sqb2-48" value="BepaalHerplanning&lt;br style=&quot;border-color: var(--border-color);&quot;&gt;GTBV" style="whiteSpace=wrap;html=1;align=center;" parent="1" vertex="1">
          <mxGeometry x="480" y="760" width="150" height="80" as="geometry" />
        </mxCell>
        <mxCell id="WLyPiBCKoL955C66Sqb2-63" value="" style="endArrow=classic;html=1;rounded=0;" parent="1" source="WLyPiBCKoL955C66Sqb2-49" target="WLyPiBCKoL955C66Sqb2-41" edge="1">
          <mxGeometry width="50" height="50" relative="1" as="geometry">
            <mxPoint x="355" y="920" as="sourcePoint" />
            <mxPoint x="405" y="870" as="targetPoint" />
          </mxGeometry>
        </mxCell>
        <mxCell id="WLyPiBCKoL955C66Sqb2-65" value="" style="endArrow=classic;html=1;rounded=0;" parent="1" source="WLyPiBCKoL955C66Sqb2-42" target="WLyPiBCKoL955C66Sqb2-49" edge="1">
          <mxGeometry width="50" height="50" relative="1" as="geometry">
            <mxPoint x="330" y="911" as="sourcePoint" />
            <mxPoint x="485" y="914" as="targetPoint" />
          </mxGeometry>
        </mxCell>
        <mxCell id="WLyPiBCKoL955C66Sqb2-49" value="" style="shape=image;verticalLabelPosition=bottom;labelBackgroundColor=default;verticalAlign=top;aspect=fixed;imageAspect=0;image=https://www.element61.be/sites/default/files/img_competences/image%25201.png;" parent="1" vertex="1">
          <mxGeometry x="389.05" y="893.75" width="61.91" height="32.5" as="geometry" />
        </mxCell>
        <mxCell id="WLyPiBCKoL955C66Sqb2-66" value="" style="endArrow=classic;html=1;rounded=0;" parent="1" source="WLyPiBCKoL955C66Sqb2-41" target="WLyPiBCKoL955C66Sqb2-46" edge="1">
          <mxGeometry width="50" height="50" relative="1" as="geometry">
            <mxPoint x="420" y="770" as="sourcePoint" />
            <mxPoint x="470" y="720" as="targetPoint" />
          </mxGeometry>
        </mxCell>
        <mxCell id="WLyPiBCKoL955C66Sqb2-67" value="" style="endArrow=classic;html=1;rounded=0;" parent="1" source="WLyPiBCKoL955C66Sqb2-70" target="WLyPiBCKoL955C66Sqb2-48" edge="1">
          <mxGeometry width="50" height="50" relative="1" as="geometry">
            <mxPoint x="390" y="800" as="sourcePoint" />
            <mxPoint x="470" y="720" as="targetPoint" />
          </mxGeometry>
        </mxCell>
        <mxCell id="WLyPiBCKoL955C66Sqb2-68" value="" style="endArrow=classic;html=1;rounded=0;" parent="1" source="WLyPiBCKoL955C66Sqb2-73" target="WLyPiBCKoL955C66Sqb2-47" edge="1">
          <mxGeometry width="50" height="50" relative="1" as="geometry">
            <mxPoint x="420" y="770" as="sourcePoint" />
            <mxPoint x="470" y="720" as="targetPoint" />
          </mxGeometry>
        </mxCell>
        <mxCell id="WLyPiBCKoL955C66Sqb2-69" value="" style="endArrow=classic;html=1;rounded=0;" parent="1" source="5XY_OFBzthxh04dWmRb7-3" target="WLyPiBCKoL955C66Sqb2-45" edge="1">
          <mxGeometry width="50" height="50" relative="1" as="geometry">
            <mxPoint x="420" y="770" as="sourcePoint" />
            <mxPoint x="470" y="720" as="targetPoint" />
          </mxGeometry>
        </mxCell>
        <mxCell id="WLyPiBCKoL955C66Sqb2-72" value="" style="endArrow=classic;html=1;rounded=0;" parent="1" source="WLyPiBCKoL955C66Sqb2-46" target="WLyPiBCKoL955C66Sqb2-70" edge="1">
          <mxGeometry width="50" height="50" relative="1" as="geometry">
            <mxPoint x="330" y="800" as="sourcePoint" />
            <mxPoint x="480" y="800" as="targetPoint" />
          </mxGeometry>
        </mxCell>
        <mxCell id="WLyPiBCKoL955C66Sqb2-70" value="" style="shape=image;verticalLabelPosition=bottom;labelBackgroundColor=default;verticalAlign=top;aspect=fixed;imageAspect=0;image=https://www.element61.be/sites/default/files/img_competences/image%25201.png;" parent="1" vertex="1">
          <mxGeometry x="389.05" y="780" width="61.91" height="32.5" as="geometry" />
        </mxCell>
        <mxCell id="WLyPiBCKoL955C66Sqb2-74" value="" style="endArrow=classic;html=1;rounded=0;" parent="1" source="WLyPiBCKoL955C66Sqb2-45" target="WLyPiBCKoL955C66Sqb2-73" edge="1">
          <mxGeometry width="50" height="50" relative="1" as="geometry">
            <mxPoint x="330" y="680" as="sourcePoint" />
            <mxPoint x="480" y="680" as="targetPoint" />
          </mxGeometry>
        </mxCell>
        <mxCell id="WLyPiBCKoL955C66Sqb2-73" value="" style="shape=image;verticalLabelPosition=bottom;labelBackgroundColor=default;verticalAlign=top;aspect=fixed;imageAspect=0;image=https://www.element61.be/sites/default/files/img_competences/image%25201.png;" parent="1" vertex="1">
          <mxGeometry x="389.04" y="663.75" width="61.91" height="32.5" as="geometry" />
        </mxCell>
        <mxCell id="WLyPiBCKoL955C66Sqb2-77" value="" style="curved=1;endArrow=classic;html=1;rounded=0;" parent="1" source="WLyPiBCKoL955C66Sqb2-48" target="WLyPiBCKoL955C66Sqb2-21" edge="1">
          <mxGeometry width="50" height="50" relative="1" as="geometry">
            <mxPoint x="700" y="700" as="sourcePoint" />
            <mxPoint x="750" y="650" as="targetPoint" />
            <Array as="points">
              <mxPoint x="750" y="700" />
              <mxPoint x="700" y="650" />
            </Array>
          </mxGeometry>
        </mxCell>
        <mxCell id="mowZxJpxHrxl7zNtEXqw-3" value="" style="shape=image;verticalLabelPosition=bottom;labelBackgroundColor=default;verticalAlign=top;aspect=fixed;imageAspect=0;image=https://www.element61.be/sites/default/files/img_competences/image%25201.png;" parent="1" vertex="1">
          <mxGeometry x="384.03000000000003" y="230" width="61.91" height="32.5" as="geometry" />
        </mxCell>
        <mxCell id="mowZxJpxHrxl7zNtEXqw-5" value="Table:&lt;br&gt;DELTALOAD_GTBV" style="whiteSpace=wrap;html=1;align=center;" parent="1" vertex="1">
          <mxGeometry x="545" y="130" width="160" height="50" as="geometry" />
        </mxCell>
        <mxCell id="iFL7OpHJK2Hk8kHR1hRp-1" value="Table:&lt;br&gt;REQUESTS_RPUN_GTBV" style="whiteSpace=wrap;html=1;align=center;" parent="1" vertex="1">
          <mxGeometry x="70" y="20" width="160" height="50" as="geometry" />
        </mxCell>
        <mxCell id="iFL7OpHJK2Hk8kHR1hRp-2" value="Stored Procedure&lt;br&gt;USP_UPDATE_RPUN_TBV_GTBV" style="html=1;dashed=0;whiteSpace=wrap;" parent="1" vertex="1">
          <mxGeometry x="314.99" y="290" width="200.01" height="90" as="geometry" />
        </mxCell>
        <mxCell id="iFL7OpHJK2Hk8kHR1hRp-3" value="" style="endArrow=classic;html=1;rounded=0;" parent="1" source="WLyPiBCKoL955C66Sqb2-21" target="iFL7OpHJK2Hk8kHR1hRp-2" edge="1">
          <mxGeometry width="50" height="50" relative="1" as="geometry">
            <mxPoint x="415" y="480" as="sourcePoint" />
            <mxPoint x="465" y="430" as="targetPoint" />
          </mxGeometry>
        </mxCell>
        <mxCell id="iFL7OpHJK2Hk8kHR1hRp-5" value="" style="endArrow=classic;html=1;rounded=0;entryX=0.5;entryY=1;entryDx=0;entryDy=0;" parent="1" source="iFL7OpHJK2Hk8kHR1hRp-2" target="mowZxJpxHrxl7zNtEXqw-3" edge="1">
          <mxGeometry width="50" height="50" relative="1" as="geometry">
            <mxPoint x="370" y="280" as="sourcePoint" />
            <mxPoint x="410" y="300" as="targetPoint" />
          </mxGeometry>
        </mxCell>
        <mxCell id="iFL7OpHJK2Hk8kHR1hRp-10" value="" style="endArrow=classic;html=1;rounded=0;" parent="1" source="WLyPiBCKoL955C66Sqb2-29" target="iFL7OpHJK2Hk8kHR1hRp-1" edge="1">
          <mxGeometry width="50" height="50" relative="1" as="geometry">
            <mxPoint x="370" y="280" as="sourcePoint" />
            <mxPoint x="420" y="230" as="targetPoint" />
          </mxGeometry>
        </mxCell>
        <mxCell id="iFL7OpHJK2Hk8kHR1hRp-11" value="" style="endArrow=classic;html=1;rounded=0;" parent="1" source="mowZxJpxHrxl7zNtEXqw-3" target="WLyPiBCKoL955C66Sqb2-22" edge="1">
          <mxGeometry width="50" height="50" relative="1" as="geometry">
            <mxPoint x="370" y="280" as="sourcePoint" />
            <mxPoint x="420" y="230" as="targetPoint" />
          </mxGeometry>
        </mxCell>
        <mxCell id="iFL7OpHJK2Hk8kHR1hRp-12" value="" style="endArrow=classic;html=1;rounded=0;" parent="1" source="mowZxJpxHrxl7zNtEXqw-3" target="mowZxJpxHrxl7zNtEXqw-5" edge="1">
          <mxGeometry width="50" height="50" relative="1" as="geometry">
            <mxPoint x="570" y="270" as="sourcePoint" />
            <mxPoint x="620" y="220" as="targetPoint" />
          </mxGeometry>
        </mxCell>
        <mxCell id="5XY_OFBzthxh04dWmRb7-1" value="" style="verticalLabelPosition=bottom;verticalAlign=top;html=1;shape=mxgraph.basic.tick;fillColor=#d5e8d4;strokeColor=#82b366;" parent="1" vertex="1">
          <mxGeometry x="345.01" y="440" width="20" height="20" as="geometry" />
        </mxCell>
        <mxCell id="5XY_OFBzthxh04dWmRb7-2" value="" style="verticalLabelPosition=bottom;verticalAlign=top;html=1;shape=mxgraph.basic.tick;fillColor=#d5e8d4;strokeColor=#82b366;" parent="1" vertex="1">
          <mxGeometry x="485" y="650" width="20" height="20" as="geometry" />
        </mxCell>
        <mxCell id="5XY_OFBzthxh04dWmRb7-3" value="" style="verticalLabelPosition=bottom;verticalAlign=top;html=1;shape=mxgraph.basic.tick;fillColor=#d5e8d4;strokeColor=#82b366;" parent="1" vertex="1">
          <mxGeometry x="485" y="760" width="20" height="20" as="geometry" />
        </mxCell>
        <mxCell id="5XY_OFBzthxh04dWmRb7-5" value="" style="verticalLabelPosition=bottom;verticalAlign=top;html=1;shape=mxgraph.basic.tick;fillColor=#d5e8d4;strokeColor=#82b366;" parent="1" vertex="1">
          <mxGeometry x="485" y="875" width="20" height="20" as="geometry" />
        </mxCell>
        <mxCell id="5XY_OFBzthxh04dWmRb7-6" value="" style="verticalLabelPosition=bottom;verticalAlign=top;html=1;shape=mxgraph.basic.tick;fillColor=#d5e8d4;strokeColor=#82b366;" parent="1" vertex="1">
          <mxGeometry x="170" y="663.75" width="20" height="20" as="geometry" />
        </mxCell>
        <mxCell id="5XY_OFBzthxh04dWmRb7-7" value="" style="verticalLabelPosition=bottom;verticalAlign=top;html=1;shape=mxgraph.basic.tick;fillColor=#d5e8d4;strokeColor=#82b366;" parent="1" vertex="1">
          <mxGeometry x="170" y="786.25" width="20" height="20" as="geometry" />
        </mxCell>
        <mxCell id="5XY_OFBzthxh04dWmRb7-8" value="" style="verticalLabelPosition=bottom;verticalAlign=top;html=1;shape=mxgraph.basic.tick;fillColor=#d5e8d4;strokeColor=#82b366;" parent="1" vertex="1">
          <mxGeometry x="170" y="893.75" width="20" height="20" as="geometry" />
        </mxCell>
        <mxCell id="5XY_OFBzthxh04dWmRb7-9" value="" style="verticalLabelPosition=bottom;verticalAlign=top;html=1;shape=mxgraph.basic.tick;fillColor=#d5e8d4;strokeColor=#82b366;" parent="1" vertex="1">
          <mxGeometry x="404" y="906.25" width="20" height="20" as="geometry" />
        </mxCell>
        <mxCell id="5XY_OFBzthxh04dWmRb7-10" value="" style="verticalLabelPosition=bottom;verticalAlign=top;html=1;shape=mxgraph.basic.tick;fillColor=#d5e8d4;strokeColor=#82b366;" parent="1" vertex="1">
          <mxGeometry x="404" y="790" width="20" height="20" as="geometry" />
        </mxCell>
        <mxCell id="5XY_OFBzthxh04dWmRb7-11" value="" style="verticalLabelPosition=bottom;verticalAlign=top;html=1;shape=mxgraph.basic.tick;fillColor=#d5e8d4;strokeColor=#82b366;" parent="1" vertex="1">
          <mxGeometry x="404.99" y="676.25" width="20" height="20" as="geometry" />
        </mxCell>
        <mxCell id="5XY_OFBzthxh04dWmRb7-12" value="" style="verticalLabelPosition=bottom;verticalAlign=top;html=1;shape=mxgraph.basic.tick;fillColor=#d5e8d4;strokeColor=#82b366;" parent="1" vertex="1">
          <mxGeometry x="345.01" y="1110" width="20" height="20" as="geometry" />
        </mxCell>
        <mxCell id="5XY_OFBzthxh04dWmRb7-13" value="" style="verticalLabelPosition=bottom;verticalAlign=top;html=1;shape=mxgraph.basic.tick;fillColor=#d5e8d4;strokeColor=#82b366;" parent="1" vertex="1">
          <mxGeometry x="340.02" y="140" width="24.99" height="20" as="geometry" />
        </mxCell>
        <mxCell id="5XY_OFBzthxh04dWmRb7-14" value="" style="verticalLabelPosition=bottom;verticalAlign=top;html=1;shape=mxgraph.basic.tick;fillColor=#d5e8d4;strokeColor=#82b366;" parent="1" vertex="1">
          <mxGeometry x="330" y="300" width="20" height="20" as="geometry" />
        </mxCell>
        <mxCell id="5XY_OFBzthxh04dWmRb7-15" value="" style="verticalLabelPosition=bottom;verticalAlign=top;html=1;shape=mxgraph.basic.tick;fillColor=#d5e8d4;strokeColor=#82b366;" parent="1" vertex="1">
          <mxGeometry x="545" y="110" width="20" height="20" as="geometry" />
        </mxCell>
        <mxCell id="x0V6ye49wI9kxeIuC7Sx-1" value="" style="verticalLabelPosition=bottom;verticalAlign=top;html=1;shape=mxgraph.basic.tick;fillColor=#d5e8d4;strokeColor=#82b366;" parent="1" vertex="1">
          <mxGeometry x="294.99" y="10" width="20" height="20" as="geometry" />
        </mxCell>
        <mxCell id="x0V6ye49wI9kxeIuC7Sx-3" value="" style="verticalLabelPosition=bottom;verticalAlign=top;html=1;shape=mxgraph.basic.tick;fillColor=#d5e8d4;strokeColor=#82b366;" parent="1" vertex="1">
          <mxGeometry x="70" y="20" width="20" height="20" as="geometry" />
        </mxCell>
      </root>
    </mxGraphModel>
  </diagram>
</mxfile>
